<svg width="42" height="42" viewBox="0 0 42 42" version="1.1" xmlns="http://www.w3.org/2000/svg" xmlns:xlink="http://www.w3.org/1999/xlink">
<title>Info Btn</title>
<desc>Created using Figma</desc>
<g id="Canvas" transform="translate(1103 491)">
<clipPath id="clip-0" clip-rule="evenodd">
<path d="M -2455 -513L -1015 -513L -1015 443L -2455 443L -2455 -513Z" fill="#FFFFFF"/>
</clipPath>
<g id="home" clip-path="url(#clip-0)">
<path d="M -2455 -513L -1015 -513L -1015 443L -2455 443L -2455 -513Z" fill="#FFFFFF"/>
<g id="header">
<g id="Info Btn">
<g id="Help Ph">
<mask id="mask0_outline_ins">
<use xlink:href="#path0_fill" fill="white" transform="translate(-1103 -491)"/>
</mask>
<g mask="url(#mask0_outline_ins)">
<use xlink:href="#path1_stroke_2x" transform="translate(-1103 -491)" fill="#E55050"/>
</g>
</g>
<g id="?">
<use xlink:href="#path2_fill" transform="translate(-1099 -488)" fill="#E55050"/>
</g>
</g>
</g>
</g>
</g>
<defs>
<path id="path0_fill" d="M 42 21C 42 32.598 32.598 42 21 42C 9.40202 42 0 32.598 0 21C 0 9.40202 9.40202 0 21 0C 32.598 0 42 9.40202 42 21Z"/>
<path id="path1_stroke_2x" d="M 39 21C 39 30.9411 30.9411 39 21 39L 21 45C 34.2548 45 45 34.2548 45 21L 39 21ZM 21 39C 11.0589 39 3 30.9411 3 21L -3 21C -3 34.2548 7.74517 45 21 45L 21 39ZM 3 21C 3 11.0589 11.0589 3 21 3L 21 -3C 7.74517 -3 -3 7.74517 -3 21L 3 21ZM 21 3C 30.9411 3 39 11.0589 39 21L 45 21C 45 7.74517 34.2548 -3 21 -3L 21 3Z"/>
<path id="path2_fill" d="M 15.3315 21.532C 15.2382 20.8973 15.2569 20.3187 15.3875 19.796C 15.5369 19.2733 15.7422 18.788 16.0035 18.34C 16.2649 17.892 16.5542 17.4813 16.8715 17.108C 17.2075 16.7347 17.5249 16.38 17.8235 16.044C 18.1222 15.6893 18.3649 15.3533 18.5515 15.036C 18.7569 14.7 18.8595 14.3547 18.8595 14C 18.8595 13.4213 18.6822 12.9827 18.3275 12.684C 17.9915 12.3853 17.5435 12.236 16.9835 12.236C 16.4609 12.236 15.9942 12.3573 15.5835 12.6C 15.1915 12.8427 14.8089 13.1507 14.4355 13.524L 12.1675 11.452C 12.8209 10.6867 13.5955 10.0707 14.4915 9.604C 15.4062 9.13733 16.4142 8.904 17.5155 8.904C 18.2622 8.904 18.9529 8.99733 19.5875 9.184C 20.2409 9.37067 20.8009 9.66 21.2675 10.052C 21.7529 10.444 22.1262 10.948 22.3875 11.564C 22.6675 12.1613 22.8075 12.8707 22.8075 13.692C 22.8075 14.2707 22.7049 14.7933 22.4995 15.26C 22.2942 15.708 22.0329 16.128 21.7155 16.52C 21.4169 16.912 21.0902 17.2947 20.7355 17.668C 20.3995 18.0227 20.0822 18.396 19.7835 18.788C 19.5035 19.18 19.2795 19.6 19.1115 20.048C 18.9435 20.4773 18.8875 20.972 18.9435 21.532L 15.3315 21.532ZM 17.1235 28.336C 16.4142 28.336 15.8262 28.0933 15.3595 27.608C 14.8929 27.104 14.6595 26.488 14.6595 25.76C 14.6595 25.0133 14.8929 24.3973 15.3595 23.912C 15.8262 23.408 16.4142 23.156 17.1235 23.156C 17.8329 23.156 18.4209 23.408 18.8875 23.912C 19.3729 24.3973 19.6155 25.0133 19.6155 25.76C 19.6155 26.488 19.3729 27.104 18.8875 27.608C 18.4209 28.0933 17.8329 28.336 17.1235 28.336Z"/>
</defs>
</svg>
