<svg width="252" height="36" viewBox="0 0 252 36" version="1.1" xmlns="http://www.w3.org/2000/svg" xmlns:xlink="http://www.w3.org/1999/xlink">
<title>Logo</title>
<desc>Created using Figma</desc>
<g id="Canvas" transform="translate(2390 487)">
<clipPath id="clip-0" clip-rule="evenodd">
<path d="M -2455 -513L -1015 -513L -1015 443L -2455 443L -2455 -513Z" fill="#FFFFFF"/>
</clipPath>
<g id="home" clip-path="url(#clip-0)">
<path d="M -2455 -513L -1015 -513L -1015 443L -2455 443L -2455 -513Z" fill="#FFFFFF"/>
<g id="header">
<g id="Logo">
<g id="fueltrack-03">
<g id="Group">
<g id="Group">
<g id="Group">
<g id="Vector">
<use xlink:href="#path0_fill" transform="translate(-2390 -487)" fill="#7717E5"/>
</g>
<g id="Vector">
<use xlink:href="#path1_fill" transform="translate(-2380.4 -478.6)" fill="#E55050"/>
</g>
<g id="Vector">
<use xlink:href="#path2_fill" transform="translate(-2359.4 -487)" fill="#50E592"/>
</g>
</g>
</g>
</g>
</g>
<g id="fueltrack">
<use xlink:href="#path3_fill" transform="translate(-2329.4 -483.625)" fill="#E55050"/>
<use xlink:href="#path4_fill" transform="translate(-2329.4 -483.625)" fill="#E55050"/>
<use xlink:href="#path5_fill" transform="translate(-2329.4 -483.625)" fill="#E55050"/>
<use xlink:href="#path6_fill" transform="translate(-2329.4 -483.625)" fill="#E55050"/>
<use xlink:href="#path7_fill" transform="translate(-2329.4 -483.625)" fill="#E55050"/>
<use xlink:href="#path8_fill" transform="translate(-2329.4 -483.625)" fill="#E55050"/>
<use xlink:href="#path9_fill" transform="translate(-2329.4 -483.625)" fill="#E55050"/>
<use xlink:href="#path10_fill" transform="translate(-2329.4 -483.625)" fill="#E55050"/>
<use xlink:href="#path11_fill" transform="translate(-2329.4 -483.625)" fill="#E55050"/>
</g>
</g>
</g>
</g>
</g>
<defs>
<path id="path0_fill" d="M 33.601 36L 9.68163 36C 4.32826 36 0 31.725 0 26.4375L 0 2.8125C 0 1.2375 1.25292 0 2.84754 0C 4.44216 0 5.69508 1.2375 5.69508 2.8125L 5.69508 26.4375C 5.69508 28.6313 7.46055 30.375 9.68163 30.375L 33.601 30.375C 35.1956 30.375 36.4485 31.6125 36.4485 33.1875C 36.4485 34.7625 35.1956 36 33.601 36Z"/>
<path id="path1_fill" d="M 25.8646 15.8684C 21.0808 15.8684 17.2081 13.2247 14.7592 8.27467C 14.1897 7.14967 13.2216 6.30592 12.0256 5.91217C 10.8296 5.51842 9.51976 5.57467 8.38074 6.13717C 6.67222 6.98092 5.64711 8.72467 5.70406 10.5809C 5.76101 12.1559 4.56504 13.4497 2.97042 13.5059C 1.3758 13.5622 0.0659322 12.3809 0.00898147 10.8059C -0.161871 6.69967 2.11616 2.87467 5.87491 1.07467C 8.38074 -0.162828 11.2283 -0.331579 13.848 0.568421C 16.4677 1.46842 18.6319 3.32467 19.8278 5.79967C 21.7072 9.56842 24.2131 10.8622 27.9149 10.0184C 29.4525 9.68092 30.9902 10.5809 31.3319 12.0997C 31.6736 13.6184 30.7624 15.1372 29.2247 15.4747C 28.1427 15.7559 27.0036 15.8684 25.8646 15.8684Z"/>
<path id="path2_fill" d="M 7.2 14.2228C 11.1764 14.2228 14.4 11.0389 14.4 7.11141C 14.4 3.18388 11.1764 0 7.2 0C 3.22355 0 0 3.18388 0 7.11141C 0 11.0389 3.22355 14.2228 7.2 14.2228Z"/>
<path id="path3_fill" d="M 11.196 5.112C 10.548 5.112 10.02 5.292 9.612 5.652C 9.204 6.012 9 6.528 9 7.2L 9 8.46L 13.32 8.46L 13.32 12.708L 9 12.708L 9 27L 2.628 27L 2.628 12.708L 0 12.708L 0 8.46L 2.628 8.46L 2.628 6.66C 2.628 4.596 3.312 2.976 4.68 1.8C 6.072 0.6 7.848 0 10.008 0C 11.424 0 12.816 0.252 14.184 0.756L 13.356 5.616C 12.396 5.28 11.676 5.112 11.196 5.112Z"/>
<path id="path4_fill" d="M 39.0774 7.524L 39.0774 27L 32.6694 27L 32.6694 23.832C 31.3494 26.088 29.2734 27.24 26.4414 27.288C 24.3294 27.288 22.6374 26.616 21.3654 25.272C 20.1174 23.904 19.4934 22.092 19.4934 19.836L 19.4934 7.524L 25.9014 7.524L 25.9014 18C 25.9014 19.104 26.1774 19.968 26.7294 20.592C 27.3054 21.216 28.0734 21.528 29.0334 21.528C 30.1614 21.504 31.0494 21.096 31.6974 20.304C 32.3454 19.488 32.6694 18.432 32.6694 17.136L 32.6694 7.524L 39.0774 7.524Z"/>
<path id="path5_fill" d="M 54.7037 7.308C 57.8717 7.308 60.3077 8.244 62.0117 10.116C 63.7157 11.988 64.5677 14.556 64.5677 17.82C 64.5677 18.324 64.5557 18.708 64.5317 18.972L 50.9957 18.972C 51.3077 20.076 51.8477 20.928 52.6157 21.528C 53.3837 22.104 54.3197 22.392 55.4237 22.392C 56.2637 22.392 57.0677 22.224 57.8357 21.888C 58.6277 21.552 59.3477 21.06 59.9957 20.412L 63.3437 23.76C 62.3357 24.888 61.1117 25.752 59.6717 26.352C 58.2557 26.928 56.6477 27.216 54.8477 27.216C 52.7597 27.216 50.9357 26.808 49.3757 25.992C 47.8157 25.176 46.6157 24.024 45.7757 22.536C 44.9597 21.048 44.5517 19.32 44.5517 17.352C 44.5517 15.36 44.9717 13.608 45.8117 12.096C 46.6517 10.56 47.8397 9.384 49.3757 8.568C 50.9117 7.728 52.6877 7.308 54.7037 7.308ZM 58.3397 15.552C 58.3397 14.424 58.0037 13.524 57.3317 12.852C 56.6837 12.156 55.8197 11.808 54.7397 11.808C 53.7317 11.808 52.8797 12.144 52.1837 12.816C 51.5117 13.488 51.0677 14.4 50.8517 15.552L 58.3397 15.552Z"/>
<path id="path6_fill" d="M 70.5271 0.288L 76.9351 0.288L 76.9351 27L 70.5271 27L 70.5271 0.288Z"/>
<path id="path7_fill" d="M 98.291 25.992C 97.571 26.4 96.743 26.724 95.807 26.964C 94.871 27.18 93.923 27.288 92.963 27.288C 91.043 27.288 89.483 26.736 88.283 25.632C 87.107 24.528 86.519 23.004 86.519 21.06L 86.519 12.708L 83.819 12.708L 83.819 8.46L 86.519 8.46L 86.519 3.06L 92.891 3.06L 92.891 8.46L 97.931 8.46L 97.931 12.708L 92.891 12.708L 92.891 20.052C 92.891 21.42 93.455 22.104 94.583 22.104C 95.279 22.104 96.107 21.888 97.067 21.456L 98.291 25.992Z"/>
<path id="path8_fill" d="M 111.342 10.764C 112.014 9.636 112.878 8.772 113.934 8.172C 115.014 7.572 116.238 7.272 117.606 7.272L 117.606 13.14C 117.39 13.116 117.066 13.104 116.634 13.104C 115.122 13.104 113.898 13.464 112.962 14.184C 112.026 14.88 111.486 15.84 111.342 17.064L 111.342 27L 104.934 27L 104.934 7.524L 111.342 7.524L 111.342 10.764Z"/>
<path id="path9_fill" d="M 132.427 7.272C 135.115 7.272 137.203 7.896 138.691 9.144C 140.179 10.368 140.935 12.096 140.959 14.328L 140.959 27L 134.659 27L 134.659 24.804C 133.363 26.46 131.407 27.288 128.791 27.288C 126.727 27.288 125.095 26.736 123.895 25.632C 122.719 24.504 122.131 23.028 122.131 21.204C 122.131 19.356 122.767 17.916 124.039 16.884C 125.335 15.852 127.183 15.324 129.583 15.3L 134.659 15.3L 134.659 15.084C 134.659 14.148 134.335 13.428 133.687 12.924C 133.063 12.42 132.151 12.168 130.951 12.168C 130.135 12.168 129.211 12.3 128.179 12.564C 127.171 12.828 126.151 13.212 125.119 13.716L 123.355 9.396C 124.939 8.676 126.451 8.148 127.891 7.812C 129.355 7.452 130.867 7.272 132.427 7.272ZM 130.771 22.932C 131.731 22.932 132.571 22.704 133.291 22.248C 134.011 21.768 134.467 21.156 134.659 20.412L 134.659 18.72L 130.843 18.72C 129.043 18.72 128.143 19.392 128.143 20.736C 128.143 21.408 128.371 21.948 128.827 22.356C 129.307 22.74 129.955 22.932 130.771 22.932Z"/>
<path id="path10_fill" d="M 160.708 14.616C 159.796 13.272 158.524 12.6 156.892 12.6C 155.74 12.6 154.804 13.044 154.084 13.932C 153.364 14.796 153.004 15.924 153.004 17.316C 153.004 18.732 153.364 19.872 154.084 20.736C 154.804 21.6 155.74 22.032 156.892 22.032C 158.668 22.032 159.94 21.3 160.708 19.836L 165.424 22.536C 164.656 24.024 163.504 25.176 161.968 25.992C 160.432 26.808 158.632 27.216 156.568 27.216C 154.576 27.216 152.824 26.808 151.312 25.992C 149.8 25.176 148.624 24.024 147.784 22.536C 146.968 21.048 146.56 19.32 146.56 17.352C 146.56 15.36 146.98 13.608 147.82 12.096C 148.66 10.56 149.836 9.384 151.348 8.568C 152.884 7.728 154.648 7.308 156.64 7.308C 158.584 7.308 160.312 7.716 161.824 8.532C 163.336 9.324 164.512 10.452 165.352 11.916L 160.708 14.616Z"/>
<path id="path11_fill" d="M 183.551 27L 179.447 19.656L 177.466 21.708L 177.466 27L 171.059 27L 171.059 0.288L 177.466 0.288L 177.466 14.112L 183.694 7.524L 190.966 7.524L 183.839 15.048L 191.111 27L 183.551 27Z"/>
</defs>
</svg>
